Coordinates																			
version=1																			
nRows=38																			
nColumns=20																			
inDegrees=yes																			
																			
Units are S.I. units (second	 meters	 Newtons	 ...)																
If the header above contains a line with 'inDegrees'	 this indicates whether rotational values are in degrees (yes) or radians (no).																		
																			
endheader																			
time	pelvis_tilt	pelvis_list	pelvis_rotation	pelvis_tx	pelvis_ty	pelvis_tz	hip_flexion_r	hip_adduction_r	hip_rotation_r	knee_angle_r	ankle_angle_r	hip_flexion_l	hip_adduction_l	hip_rotation_l	knee_angle_l	ankle_angle_l	lumbar_extension	lumbar_bending	lumbar_rotation
2.17	5.9541033	7.55985259	90.36802682	0.01468488	0.95484169	2.55678408	-20.12485182	8.64644103	-19.50085886	-8.36564915	-0.57325658	21.04852707	-8.32285361	-27.71313017	4.26579194	-16.30365074	-19.9050152	4.88880247	2.18686704
2.18	5.77040531	7.65285407	90.21478574	0.01348771	0.95197515	2.54065771	-20.88481008	8.15120395	-19.64171317	-9.2990289	-0.53893855	20.91264241	-8.02093176	-28.2078398	4.68748331	-15.97249198	-19.78986771	4.51141809	2.21994174
2.19	5.51938381	7.86725463	90.00555674	0.01232285	0.94961673	2.52435166	-21.72813439	7.5291044	-19.72146566	-10.31049668	-0.74857257	20.60187776	-7.73947657	-28.58475662	4.719501	-15.72646431	-19.8769664	4.10334625	2.3104198
2.2	5.21703089	8.09012182	89.75255951	0.01120686	0.94761957	2.50789538	-22.50149501	6.7912964	-19.82140606	-11.44662462	-1.28470575	20.27056609	-7.49413726	-28.9165873	4.34810214	-15.57683192	-19.92691559	3.59763143	2.41456067
2.21	4.86004371	8.34657534	89.46230642	0.01010199	0.94601559	2.49131268	-23.21717859	5.93215665	-19.92549697	-12.72224653	-2.1463499	19.87490386	-7.26143366	-29.15146601	3.66096604	-15.55050501	-20.0051813	3.02526642	2.5416364
2.22	4.4598503	8.62715689	89.15213166	0.00897225	0.94479258	2.47464187	-23.83997515	4.96545368	-20.03974926	-14.16392692	-3.36069525	19.42886212	-7.03314745	-29.25570712	2.72098497	-15.66887002	-20.10636417	2.40098429	2.68367885
2.23	4.02903053	8.92948379	88.84600674	0.00778035	0.94395023	2.45792384	-24.34465321	3.91202376	-20.16912292	-15.78806322	-4.94274153	18.94602534	-6.80257784	-29.19729326	1.58080826	-15.9599554	-20.2390106	1.71854061	2.84402915
2.24	3.56997224	9.24490526	88.55265762	0.00647371	0.94349801	2.44118749	-24.69084253	2.77160664	-20.30854372	-17.62961347	-6.9146618	18.4250769	-6.54614377	-28.97276844	0.33315445	-16.42827424	-20.3771083	1.03483712	2.99212255
2.25	3.07188369	9.57514229	88.28209855	0.00503289	0.94344889	2.42447422	-24.86122911	1.54176812	-20.42570728	-19.70059436	-9.22262328	17.86831479	-6.23913035	-28.62569259	-0.97096504	-17.09023046	-20.53057398	0.31708659	3.17559768
2.26	2.56147666	9.89805656	88.07016089	0.00341257	0.94376608	2.40785258	-24.82664945	0.28257269	-20.47924128	-21.97885676	-11.85760772	17.31165132	-5.88887673	-28.09227322	-2.29285621	-17.91565227	-20.68961708	-0.38037145	3.26602434
2.27	2.0268586	10.20983541	87.91296752	0.00161911	0.94444566	2.39136399	-24.57182269	-1.00189191	-20.40624457	-24.46717623	-14.6903047	16.75453664	-5.47872769	-27.44661024	-3.59621784	-18.87226012	-20.85099849	-1.07634923	3.2967568
2.28	1.48527968	10.49771315	87.82032319	-0.00034339	0.94546234	2.37506262	-24.07732399	-2.2663459	-20.16385218	-27.15416805	-17.62988632	16.21378103	-5.02260211	-26.70789766	-4.86843177	-19.89325459	-21.01203564	-1.74544882	3.27505976
2.29	0.94181148	10.75701813	87.77968945	-0.00243639	0.94680374	2.35898362	-23.33203713	-3.48478534	-19.69901689	-30.02968793	-20.57034575	15.68079485	-4.52641931	-25.93351522	-6.0819706	-20.91156838	-21.16763891	-2.38895354	3.20612012
2.3	0.41584041	10.98175406	87.78056596	-0.0046165	0.94843881	2.34315829	-22.33198958	-4.61611099	-18.99384002	-33.07125615	-23.42987202	15.14813748	-4.01163441	-25.15820231	-7.21226969	-21.86486963	-21.30440213	-2.98980951	3.07880815
2.31	-0.06951126	11.15282808	87.83363665	-0.0068694	0.95029751	2.32763848	-21.06581591	-5.61690303	-18.10299924	-36.2568059	-26.13867214	14.64379205	-3.50676359	-24.41184001	-8.27578672	-22.68419727	-21.43029766	-3.5194362	2.92398649
2.32	-0.52575103	11.27945977	87.9036675	-0.0091359	0.95236924	2.31241286	-19.55826086	-6.50012348	-17.03967854	-39.55259735	-28.62540314	14.1196859	-3.00084272	-23.75814694	-9.21297594	-23.28142033	-21.52054845	-3.99053944	2.78049449
2.33	-0.89011667	11.33498194	88.0127119	-0.01138081	0.95457761	2.29753377	-17.81433178	-7.16981513	-15.86435484	-42.8973676	-30.83362504	13.62109773	-2.56812517	-23.17971232	-10.04020968	-23.86995961	-21.58841306	-4.36017109	2.5328073
2.34	-1.21029154	11.35715652	88.13096329	-0.01359257	0.95695703	2.28294664	-15.90227317	-7.70541054	-14.65812647	-46.25222872	-32.70789132	13.06971192	-2.15557312	-22.74793519	-10.70703895	-24.21496313	-21.63638516	-4.65914995	2.28433183
2.35	-1.4522193	11.35128547	88.25568058	-0.01573747	0.95950193	2.26864943	-13.86229045	-8.06960981	-13.4661616	-49.55358744	-34.21370117	12.45832021	-1.80419397	-22.45732777	-11.20661433	-24.39392802	-21.67068726	-4.85899322	1.91105789
2.36	-1.64171317	11.32406642	88.40302852	-0.01785092	0.96218877	2.25462328	-11.73390871	-8.31881931	-12.40017743	-52.7717094	-35.27308963	11.77974724	-1.48389534	-22.29557103	-11.52673277	-24.53877431	-21.71950773	-4.99540213	1.73175635
2.37	-1.74557539	11.27673331	88.55375222	-0.01988938	0.96501165	2.24085608	-9.54264439	-8.4256407	-11.45781428	-55.85051088	-35.883012	11.0370589	-1.23743844	-22.25001994	-11.68187902	-24.56664964	-21.75714152	-5.02315505	1.51993786
2.38	-1.76775931	11.21429041	88.71133845	-0.0218619	0.96795014	2.22733263	-7.31768913	-8.41683585	-10.68639387	-58.75238498	-36.04598288	10.23532312	-1.06320973	-22.30428466	-11.68736149	-24.51529506	-21.79998276	-4.93896386	1.22873037
2.39	-1.75580015	11.17909535	88.85660807	-0.0237599	0.97103812	2.21399359	-5.12496874	-8.37198136	-10.09370342	-61.45001476	-35.68826176	9.30834529	-0.90484224	-22.45665884	-11.49684174	-24.44925591	-21.86462093	-4.82147548	1.08255467
2.4	-1.62801363	11.13275873	89.00918877	-0.02555417	0.97418348	2.20089504	-2.94166917	-8.182485	-9.67605544	-63.89564805	-34.86930575	8.34894845	-0.86190342	-22.59527107	-11.20693104	-24.33838104	-21.96629943	-4.60635839	0.94641244
2.41	-1.47706315	10.96354656	89.19503084	-0.02737057	0.97715883	2.18802687	-0.6389976	-7.9957402	-9.48413961	-66.11286776	-33.78389554	7.49608332	-0.82627556	-22.65957185	-10.83634947	-24.15929423	-21.87905546	-4.28348779	0.70306086
2.42	-1.26907899	10.85793612	89.37436494	-0.02907232	0.98021179	2.17530675	1.53989533	-7.76209403	-9.46148805	-68.02146338	-32.31464269	6.53330977	-0.85521541	-22.79857267	-10.37654355	-23.96506077	-21.92515807	-3.89498712	0.5143085
2.43	-1.01439926	10.70606307	89.54349888	-0.03066044	0.98314653	2.16274288	3.72468055	-7.48332161	-9.55774897	-69.62154908	-30.67609007	5.58919859	-0.9296399	-22.86693014	-9.83409775	-23.72038436	-21.86393659	-3.490156	0.28729313
2.44	-0.73315114	10.55011181	89.7325206	-0.03218442	0.98596561	2.15030795	5.84721062	-7.19517061	-9.80544521	-70.89635641	-28.93119255	4.64560832	-1.03922694	-22.92476037	-9.26406567	-23.46412719	-21.82574553	-3.02524849	0.06890607
2.45	-0.41933664	10.3725778	89.94323192	-0.03363444	0.98861488	2.13798232	7.91824531	-6.88173414	-10.17315959	-71.83097557	-27.21297502	3.73327836	-1.19555525	-22.95744332	-8.68809429	-23.19076579	-21.75579201	-2.48875366	-0.28313887
2.46	-0.11894799	10.21321943	90.15345854	-0.03498431	0.99111889	2.12571804	9.89167677	-6.58653937	-10.60188826	-72.43332296	-25.55128464	2.78976554	-1.34310677	-22.9698086	-8.06785169	-22.94575553	-21.71006481	-2.01543597	-0.4495878
2.47	0.20055458	10.03663032	90.39815831	-0.03628146	0.99340372	2.113511	11.78875455	-6.27796898	-11.11953881	-72.69143191	-24.06743147	1.89119097	-1.52933074	-22.97334141	-7.47614229	-22.70290171	-21.62710716	-1.46503141	-0.78072903
2.48	0.51185809	9.91079118	90.65021257	-0.03748426	0.99555146	2.10131208	13.52863908	-5.97625434	-11.67161909	-72.61235569	-22.73032258	0.94126221	-1.72070375	-22.9936132	-6.87148269	-22.54163493	-21.62269307	-0.95125406	-0.870545
2.49	0.79026772	9.76799199	90.92265541	-0.03863975	0.99743829	2.08911699	15.18982407	-5.72193276	-12.25582022	-72.22833527	-21.58354727	0.02699442	-1.88887714	-23.01383174	-6.28196102	-22.37250058	-21.56267165	-0.46048893	-1.02201879
2.5	1.05414677	9.65693781	91.21197474	-0.03972794	0.9991429	2.07687719	16.70051062	-5.4915133	-12.86784522	-71.52610114	-20.62509989	-0.91522737	-2.05399123	-23.04521633	-5.68865784	-22.25222281	-21.47982889	-0.00557011	-1.16561735
2.51	1.24542397	9.57496191	91.52132436	-0.04080835	1.00062085	2.06462098	18.0768651	-5.36006926	-13.4844533	-70.55947636	-19.77170664	-1.87587495	-2.14826315	-23.09245823	-5.1095167	-22.09146227	-21.48969237	0.41746994	-1.94714858
2.52	1.43655365	9.48114796	91.84297212	-0.0418141	1.00184547	2.05232096	19.34833737	-5.23507227	-14.11336824	-69.29706944	-19.11899683	-2.80881453	-2.25760549	-23.14767855	-4.5426935	-22.08553722	-21.42928721	0.82058308	-2.02168763
2.53	1.56662885	9.49837479	92.16877868	-0.04279481	1.00297072	2.03992627	20.37122792	-5.18540178	-14.73653029	-67.7649992	-18.52424002	-3.87536406	-2.30698972	-23.25402163	-3.95130864	-22.08471059	-21.5181712	1.18021574	-2.41983215
2.54	1.64566844	9.43746326	92.51445785	-0.04374632	1.00370704	2.02751014	21.37386032	-5.20656981	-15.35653751	-66.00508167	-17.9881176	-4.8321166	-2.31279102	-23.33433901	-3.40714701	-22.07313356	-21.47160189	1.48494393	-2.59403485
